<?xml version="1.0" encoding="utf-8"?>
<!-- Generator: Adobe Illustrator 16.0.0, SVG Export Plug-In . SVG Version: 6.00 Build 0)  -->
<!DOCTYPE svg PUBLIC "-//W3C//DTD SVG 1.1//EN" "http://www.w3.org/Graphics/SVG/1.1/DTD/svg11.dtd">
<svg version="1.1" id="Layer_1" xmlns="http://www.w3.org/2000/svg" xmlns:xlink="http://www.w3.org/1999/xlink" x="0px" y="0px"
	 width="500px" height="500px" viewBox="0 0 500 500" enable-background="new 0 0 500 500" xml:space="preserve">
<circle fill="#FFFFFF" cx="250" cy="250" r="206.5"/>
<path fill="#9E0B0F" d="M250,30C128.616,30,30,128.616,30,250c0,121.385,98.616,220,220,220c121.384,0,220-98.615,220-220
	C470,128.616,371.384,30,250,30z M250,50c110.575,0,200,89.425,200,200s-89.425,200-200,200S50,360.575,50,250S139.425,50,250,50z
	 M164.062,154.688c-0.423,0.077-0.84,0.182-1.25,0.312c-5.435,0.986-9.041,6.191-8.055,11.625c0.388,2.137,1.46,4.089,3.055,5.562
	L235.625,250l-77.812,77.812c-3.97,3.97-3.97,10.405,0,14.375s10.405,3.97,14.375,0L250,264.375l77.812,77.812
	c3.97,3.97,10.405,3.97,14.375,0s3.97-10.405,0-14.375L264.375,250l77.812-77.812c4.042-3.764,4.268-10.092,0.503-14.135
	c-2.281-2.45-5.637-3.596-8.94-3.053c-2.239,0.242-4.331,1.233-5.938,2.812L250,235.625l-77.812-77.812
	C170.098,155.585,167.106,154.434,164.062,154.688z"/>
</svg>
