<?xml version="1.0" encoding="utf-8"?>
<!-- Generator: Adobe Illustrator 16.0.0, SVG Export Plug-In . SVG Version: 6.00 Build 0)  -->
<!DOCTYPE svg PUBLIC "-//W3C//DTD SVG 1.1 Tiny//EN" "http://www.w3.org/Graphics/SVG/1.1/DTD/svg11-tiny.dtd">
<svg version="1.1" baseProfile="tiny" id="Layer_1" xmlns="http://www.w3.org/2000/svg" xmlns:xlink="http://www.w3.org/1999/xlink"
	 x="0px" y="0px" width="105px" height="105px" viewBox="0 0 105 105" xml:space="preserve">
<path display="none" fill="#9E0A0B" d="M83.25,3h-62.5C10.391,3,2,11.391,2,21.75v62.5C2,94.609,10.391,103,20.75,103h62.5
	C93.609,103,102,94.609,102,84.25v-62.5C102,11.391,93.609,3,83.25,3L83.25,3z M88.98,45.477L72.711,61.34l3.84,22.383
	c0.203,1.148-0.27,2.316-1.215,2.996c-0.535,0.391-1.164,0.586-1.801,0.586c-0.488,0-0.977-0.117-1.426-0.355L52,76.383
	l-20.109,10.57c-1.036,0.543-2.286,0.453-3.227-0.234c-0.941-0.684-1.418-1.848-1.215-2.996l3.84-22.383L15.02,45.477
	c-0.836-0.817-1.133-2.028-0.774-3.137c0.363-1.11,1.32-1.914,2.469-2.086l22.488-3.266l10.055-20.375
	c1.035-2.09,4.457-2.09,5.492,0l10.055,20.375l22.488,3.266c1.148,0.168,2.113,0.976,2.469,2.086
	C90.117,43.449,89.816,44.66,88.98,45.477L88.98,45.477z"/>
<path fill="none" stroke="#9E0B0F" stroke-width="3" stroke-miterlimit="10" d="M101,91.3c0,5.357-4.343,9.7-9.7,9.7H13.7
	C8.343,101,4,96.657,4,91.3V13.7C4,8.343,8.343,4,13.7,4h77.6c5.357,0,9.7,4.343,9.7,9.7V91.3z"/>
<polygon fill="#9E0B0F" points="89.5,23.761 39.518,73.743 19.186,53.411 13.255,59.554 39.518,85.604 95.431,29.692 "/>
</svg>
