<?xml version="1.0" encoding="utf-8"?>
<!-- Generator: Adobe Illustrator 16.0.0, SVG Export Plug-In . SVG Version: 6.00 Build 0)  -->
<!DOCTYPE svg PUBLIC "-//W3C//DTD SVG 1.1//EN" "http://www.w3.org/Graphics/SVG/1.1/DTD/svg11.dtd">
<svg version="1.1" id="Layer_1" xmlns="http://www.w3.org/2000/svg" xmlns:xlink="http://www.w3.org/1999/xlink" x="0px" y="0px"
	 width="500px" height="500px" viewBox="0 0 500 500" enable-background="new 0 0 500 500" xml:space="preserve">
<image overflow="visible" width="96" height="96" xlink:href="../../../Documents/Business/4. Agent Shaming/AGENT SHAMING PSDs &amp; JPEGS/DESIGN FILES/ICONS/Good Quality-96.png"  transform="matrix(5.7569 0 0 5.7569 834.3057 -28.5)">
</image>
<g>
	<circle fill="#9E0B0F" cx="250" cy="249" r="219.5"/>
	<path fill="#9E0B0F" d="M409.452,89.548C452.044,132.139,475.5,188.767,475.5,249s-23.456,116.861-66.048,159.453
		C366.861,451.044,310.233,474.5,250,474.5s-116.861-23.456-159.453-66.047C47.956,365.861,24.5,309.233,24.5,249
		S47.956,132.139,90.547,89.548C133.139,46.956,189.767,23.5,250,23.5S366.861,46.956,409.452,89.548z"/>
</g>
<path fill="#FFCC80" d="M345.216,154.852c3.912,7.691,2.245,17.446,0.636,23.247c13.533,8.378,15.056,18.47,15.056,22.571
	c0,9.012-5.042,15.191-9.52,18.901c4.461,4.147,9.537,10.85,9.52,19.857c-0.026,14.052-8.874,21.191-14.329,24.255
	c0.542,2.895,0.934,6.946,0.479,11.924c-0.815,8.944-5.343,19.818-22.271,20.813l-0.148,0.009h-80.592
	c5.422,12.929,19.273,45.973,20.619,49.338c0.704,1.758,3.031,8.053,3.466,15.255c0.553,9.198-2.231,16.472-8.053,21.034
	c-4.88,3.822-9.86,5.762-14.804,5.762c-7.735,0-13.392-4.918-15.525-7.838c-0.559-0.77-56.021-77.234-68.556-93.947
	c-12.708-16.945-12.588-30.098-12.45-32.439v-64.199c0-15.642,7.672-28.97,22.188-38.544c10.587-6.983,21.101-9.496,21.543-9.599
	l0.571-0.135h130.809C327.583,141.117,339.511,143.641,345.216,154.852z"/>
</svg>
