<?xml version="1.0" encoding="utf-8"?>
<!-- Generator: Adobe Illustrator 16.0.0, SVG Export Plug-In . SVG Version: 6.00 Build 0)  -->
<!DOCTYPE svg PUBLIC "-//W3C//DTD SVG 1.1//EN" "http://www.w3.org/Graphics/SVG/1.1/DTD/svg11.dtd">
<svg version="1.1" id="Layer_1" xmlns="http://www.w3.org/2000/svg" xmlns:xlink="http://www.w3.org/1999/xlink" x="0px" y="0px"
	 width="306.471px" height="306.471px" viewBox="0 0 306.471 306.471" enable-background="new 0 0 306.471 306.471"
	 xml:space="preserve">
<g>
	<ellipse opacity="0.59" fill="#DEDBD4" cx="152.716" cy="259.944" rx="153.235" ry="10.952"/>
	<g>
		<g>
			<path fill="#7FA940" d="M297.643,249.919c0-8.284-6.417-15-14.333-15c-1.933,0-3.773,0.405-5.456,1.131
				c-1.854-4.681-5.854-8.229-10.758-9.385c0.345-1.417,0.547-2.89,0.547-4.413c0-9.479-7.072-17.29-16.225-18.489
				c-3.152-6.059-9.331-10.178-16.441-10.178c-6.538,0-12.281,3.487-15.615,8.757c-2.407-3.636-6.574-6.045-11.32-6.045
				c-7.456,0-13.5,5.932-13.5,13.25c0,0.338,0.026,0.67,0.052,1.002c-0.018,0-0.035-0.002-0.052-0.002
				c-7.456,0-13.5,5.932-13.5,13.25c0,0.423,0.024,0.84,0.064,1.253c-0.022,0-0.043-0.003-0.064-0.003
				c-7.247,0-13.144,5.608-13.469,12.642c-4.729,2.062-8.031,6.702-8.031,12.108c0,1.503,0.269,2.941,0.739,4.288h136.79
				C297.437,252.761,297.643,251.366,297.643,249.919z"/>
		</g>
		<path fill="#9ABB3C" d="M261.473,231.693c-0.792,0-1.562,0.11-2.304,0.312c-1.012-8.096-8.499-14.384-17.59-14.384
			c-4.139,0-7.943,1.307-10.958,3.49c-2.58-3.028-6.386-4.946-10.634-4.946c-2.047,0-3.988,0.448-5.743,1.247
			c-2.632-3.959-7.224-6.584-12.452-6.584c-3.899,0-7.443,1.46-10.087,3.844c-1.12-0.291-2.292-0.447-3.499-0.447
			c-7.554,0-13.735,6.05-14.271,13.717c-2.833,0.994-5.223,3.141-6.794,5.957c-0.747-1.252-1.9-2.247-3.136-3.042
			c-5.707-3.676-13.568-3.459-19.262,0.236c-5.694,3.695-9.065,10.565-8.865,17.351c0.051,1.743,0.332,3.468,0.808,5.139h4.697
			h12.491l115.772,0.833c1.392-2.145,2.258-7.171,2.258-10.107C271.904,237.341,267.234,231.693,261.473,231.693z"/>
	</g>
	<g>
		<polygon fill="#A8A18F" points="130.143,45.752 122.143,54.252 155.643,102.252 199.643,102.252 		"/>
		<rect x="162.143" y="183.752" fill="#9E998B" width="51.5" height="69.083"/>
		<rect x="159.111" y="244.752" fill="#AAA599" width="52.031" height="8.25"/>
		<polygon fill="none" points="159.977,162.585 211.477,162.585 222.143,181.419 158.977,180.752 		"/>
		<path fill="#163334" d="M158.185,162.147c0.75,0.167,52.933,0.597,52.933,0.597l10.625,18.167l-63.808-0.43L158.185,162.147z"/>
		<polygon fill="#EFE8D8" points="159.018,180.752 159.018,187.002 159.393,187.002 159.174,253.189 162.727,253.169 
			162.893,187.002 210.893,187.002 210.705,253.252 217.268,253.252 217.143,187.002 221.893,187.002 221.893,180.752 		"/>
		<path fill="#EDEBE6" d="M199.627,214.919c0.003-0.082-0.03-8.341-0.03-8.424c0-2.137-0.865-3.451-1.87-3.451
			c-1.006,0-1.771,1.314-1.771,3.451c0,0.055,0.001,8.411,0.002,8.465L199.627,214.919z"/>
		<rect x="162.893" y="187.002" fill="#8A867A" width="48" height="4.75"/>
		<path fill="#102221" d="M178.58,162.669c1.25,0.833,19,17.583,19,17.583l-39.166,0.25l-0.146-17.812L178.58,162.669z"/>
		<rect x="153.102" y="111.585" fill="#B3AEA4" width="58" height="51.25"/>
		<rect x="158.305" y="112.075" fill="#A19C92" width="20.359" height="50.666"/>
		<polygon fill="#CEC8B7" points="158.727,106.752 199.297,106.752 211.268,106.752 211.018,115.377 158.977,115.335 		"/>
		<path fill="#E2DCCA" d="M158.644,111.752c0.668,0,52.165,0,52.165,0l0.334-5.417h-52.541L158.644,111.752z"/>
		<path fill="#77756C" d="M158.393,100.21c0.504,0,34.603,0.167,34.603,0.167l8.231,6.333l-42.666-0.166L158.393,100.21z"/>
		<g>
			<polygon fill="#D2C9B8" points="124.555,53.275 130.227,49.252 200.018,107.294 209.143,107.669 130.727,43.502 120.896,50.433 
							"/>
			<path fill="#D4CEC7" d="M215.185,107.669l-84.208-69.917c0,0-5.759,4.02-13.902,9.713l3.778,2.935
				c8.457-6.105,9.874-6.897,9.874-6.897l78.416,64.167H215.185z"/>
		</g>
		<rect x="158.83" y="111.71" fill="#BCB6A7" width="20.271" height="3.584"/>
		<rect x="162.893" y="187.002" fill="#8A867A" width="2.25" height="66.25"/>
		<g>
			<rect x="165.143" y="197.752" fill="#EDEBE6" width="37" height="55.333"/>
			<rect x="172.643" y="200.252" fill="#7A5957" width="20.75" height="52.667"/>
			<path fill="#553E3E" d="M181.064,213.908c0.004-0.082-0.047-5.58-0.047-5.663c0-2.137-1.259-3.868-2.812-3.868
				c-1.553,0-2.812,1.731-2.812,3.868c0,0.055,0.001,5.581,0.003,5.636L181.064,213.908z"/>
			<path fill="#553E3E" d="M189.752,213.908c0.004-0.082-0.047-5.58-0.047-5.663c0-2.137-1.259-3.868-2.812-3.868
				c-1.553,0-2.812,1.731-2.812,3.868c0,0.055,0.001,5.581,0.003,5.636L189.752,213.908z"/>
			<rect x="175.414" y="215.439" fill="#553E3E" width="5.791" height="13.438"/>
			<rect x="184.102" y="215.439" fill="#553E3E" width="5.791" height="13.438"/>
			<rect x="175.414" y="236.564" fill="none" stroke="#553E3E" stroke-miterlimit="10" width="5.791" height="9.688"/>
			<rect x="184.102" y="236.564" fill="none" stroke="#553E3E" stroke-miterlimit="10" width="5.791" height="9.688"/>
			<path fill="#D4D0C7" d="M170.752,214.919c0.003-0.082-0.03-8.341-0.03-8.424c0-2.137-0.865-3.451-1.87-3.451
				c-1.006,0-1.771,1.314-1.771,3.451c0,0.055,0.001,8.411,0.002,8.465L170.752,214.919z"/>
			<path fill="#D4D0C7" d="M199.169,214.919c0.003-0.082-0.03-8.341-0.03-8.424c0-2.137-0.865-3.451-1.871-3.451
				c-1.005,0-1.771,1.314-1.771,3.451c0,0.055,0.001,8.411,0.002,8.465L199.169,214.919z"/>
			<rect x="166.977" y="216.752" fill="#D4D0C7" width="3.791" height="36"/>
			<rect x="195.977" y="216.752" fill="#D4D0C7" width="3.791" height="36"/>
		</g>
		<polyline fill="none" stroke="#C6BC9E" stroke-miterlimit="10" points="120.41,50.017 130.284,43.119 208.701,107.286 		"/>
		<g opacity="0.61">
			<line fill="none" stroke="#77756C" stroke-miterlimit="10" x1="157.284" y1="115.515" x2="210.81" y2="115.805"/>
			<line fill="none" stroke="#77756C" stroke-miterlimit="10" x1="156.034" y1="119.64" x2="210.81" y2="119.851"/>
			<line fill="none" stroke="#77756C" stroke-miterlimit="10" x1="157.909" y1="124.265" x2="211.076" y2="124.536"/>
			<line fill="none" stroke="#77756C" stroke-miterlimit="10" x1="158.284" y1="128.827" x2="211.034" y2="129.244"/>
			<line fill="none" stroke="#77756C" stroke-miterlimit="10" x1="158.19" y1="133.421" x2="211.076" y2="133.744"/>
			<line fill="none" stroke="#77756C" stroke-miterlimit="10" x1="158.222" y1="138.046" x2="211.034" y2="138.494"/>
			<line fill="none" stroke="#77756C" stroke-miterlimit="10" x1="158.222" y1="142.671" x2="211.076" y2="143.161"/>
			<line fill="none" stroke="#77756C" stroke-miterlimit="10" x1="158.597" y1="147.421" x2="211.076" y2="147.827"/>
			<line fill="none" stroke="#77756C" stroke-miterlimit="10" x1="157.972" y1="152.015" x2="211.034" y2="152.411"/>
			<line fill="none" stroke="#77756C" stroke-miterlimit="10" x1="158.097" y1="156.671" x2="211.076" y2="157.119"/>
			<line fill="none" stroke="#77756C" stroke-miterlimit="10" x1="157.201" y1="161.286" x2="211.034" y2="161.619"/>
		</g>
		<g>
			<rect x="171.113" y="119.919" fill="#FFFFFF" width="19.666" height="32.5"/>
			<rect x="171.113" y="119.919" fill="#E8EBEC" width="8.029" height="32.5"/>
			<rect x="175.727" y="125.419" fill="#357A8A" width="10.916" height="24.666"/>
			<rect x="175.727" y="125.419" fill="#2F6E77" width="3.75" height="24.333"/>
			<polygon fill="#FFFFFF" points="181.72,138.522 181.72,124.502 180.173,124.502 180.173,138.522 175.256,138.522 
				175.256,140.252 186.637,140.252 186.637,138.522 			"/>
		</g>
	</g>
	<path fill="#E2DBCC" d="M45.81,81.252c1.667-1.333,58-40.667,58-40.667l56,43.667l-114.5-0.667L45.81,81.252z"/>
	<rect x="44.31" y="94.585" fill="#BFBAAA" width="116.475" height="72.5"/>
	<g opacity="0.61">
		<line fill="none" stroke="#77756C" stroke-miterlimit="10" x1="44.643" y1="101.752" x2="161.227" y2="102.21"/>
		<line fill="none" stroke="#77756C" stroke-miterlimit="10" x1="44.643" y1="106.752" x2="161.227" y2="107.21"/>
		<line fill="none" stroke="#77756C" stroke-miterlimit="10" x1="44.643" y1="112.502" x2="160.826" y2="112.994"/>
		<line fill="none" stroke="#77756C" stroke-miterlimit="10" x1="44.643" y1="118.252" x2="160.889" y2="118.786"/>
		<line fill="none" stroke="#77756C" stroke-miterlimit="10" x1="44.643" y1="124.002" x2="160.889" y2="124.474"/>
		<line fill="none" stroke="#77756C" stroke-miterlimit="10" x1="44.643" y1="129.752" x2="160.826" y2="130.192"/>
		<line fill="none" stroke="#77756C" stroke-miterlimit="10" x1="44.643" y1="135.502" x2="160.826" y2="135.974"/>
		<line fill="none" stroke="#77756C" stroke-miterlimit="10" x1="44.643" y1="141.252" x2="160.826" y2="141.755"/>
		<line fill="none" stroke="#77756C" stroke-miterlimit="10" x1="44.643" y1="147.002" x2="160.92" y2="147.411"/>
		<line fill="none" stroke="#77756C" stroke-miterlimit="10" x1="44.18" y1="152.744" x2="160.764" y2="153.202"/>
		<line fill="none" stroke="#77756C" stroke-miterlimit="10" x1="44.643" y1="158.502" x2="160.805" y2="158.994"/>
		<line fill="none" stroke="#77756C" stroke-miterlimit="10" x1="44.643" y1="164.252" x2="160.742" y2="164.724"/>
	</g>
	<rect x="44.06" y="167.085" fill="#EFE8D8" width="117.25" height="8.75"/>
	<rect x="44.06" y="175.835" fill="#8D3830" width="117.25" height="83"/>
	<g>
		<line fill="none" stroke="#6C2825" stroke-miterlimit="10" x1="44.571" y1="182.384" x2="161.156" y2="182.578"/>
		<line fill="none" stroke="#6C2825" stroke-miterlimit="10" x1="44.583" y1="187.384" x2="161.167" y2="187.578"/>
		<line fill="none" stroke="#6C2825" stroke-miterlimit="10" x1="44.596" y1="193.134" x2="161.18" y2="193.328"/>
		<line fill="none" stroke="#6C2825" stroke-miterlimit="10" x1="44.609" y1="198.884" x2="161.193" y2="199.078"/>
		<line fill="none" stroke="#6C2825" stroke-miterlimit="10" x1="44.622" y1="204.634" x2="161.206" y2="204.828"/>
		<line fill="none" stroke="#6C2825" stroke-miterlimit="10" x1="44.635" y1="210.384" x2="161.22" y2="210.578"/>
		<line fill="none" stroke="#6C2825" stroke-miterlimit="10" x1="44.648" y1="216.134" x2="161.232" y2="216.328"/>
		<line fill="none" stroke="#6C2825" stroke-miterlimit="10" x1="44.661" y1="221.884" x2="161.245" y2="222.078"/>
		<line fill="none" stroke="#6C2825" stroke-miterlimit="10" x1="44.674" y1="227.634" x2="161.259" y2="227.828"/>
		<line fill="none" stroke="#6C2825" stroke-miterlimit="10" x1="44.688" y1="233.384" x2="161.271" y2="233.578"/>
		<line fill="none" stroke="#6C2825" stroke-miterlimit="10" x1="44.7" y1="239.134" x2="161.284" y2="239.328"/>
		<line fill="none" stroke="#6C2825" stroke-miterlimit="10" x1="44.714" y1="244.884" x2="161.298" y2="245.078"/>
	</g>
	<path fill="#E5E1DA" d="M36.31,83.585c1-1,67.25-47.25,67.25-47.25l61.5,47.25l-8.5,0.25l-53.75-39.75l-56,39.5H36.31z"/>
	<polygon fill="#BFBAAA" points="137.06,76.085 69.06,76.085 69.06,76.085 103.31,50.335 	"/>
	<path fill="#8F8A7E" d="M95.326,83.161c0.666-0.334,9.983-7.576,9.983-7.576l31.204-0.049l10.312,7.562L95.326,83.161z"/>
	<rect x="75.81" y="103.835" fill="#3C869B" width="55.5" height="55.5"/>
	<polygon fill="#A6A092" points="96.81,82.919 119.81,63.252 103.31,50.335 58.143,83.419 	"/>
	<polygon fill="#77756C" points="97.643,83.085 105.31,75.585 68.477,75.919 58.143,83.419 	"/>
	<path fill="#A6A092" d="M101.977,52.085c0.5,0.167,31.666,24.167,31.666,24.167l3.417-0.167l-33.75-25.75l-1.667,2.417"/>
	<polygon fill="#77756C" points="132.639,75.515 142.305,83.099 146.826,83.099 136.326,75.442 	"/>
	<g>
		<rect x="76.06" y="103.835" fill="#357A8A" width="18.75" height="55.25"/>
		<rect x="75.81" y="103.835" fill="#357A8A" width="55" height="11.75"/>
		<rect x="75.81" y="103.835" fill="#FFFFFF" width="4.5" height="55.5"/>
		<rect x="127.06" y="103.835" fill="#FFFFFF" width="4.5" height="55.5"/>
		<rect x="75.81" y="103.335" fill="#FFFFFF" width="55.5" height="4.75"/>
		<rect x="75.81" y="156.14" fill="#FFFFFF" width="55.5" height="3.453"/>
		<path fill="#FFFFFF" d="M131.56,128.093v-3.453h-15.118v-6.891h13.951v-1.265h-13.951v-9.951h-1.264v9.951h-9.618v-12.649h-4.5
			v12.649h-9.618v-10.951h-1.264v10.951H76.893v1.265h13.285v6.891H78.06v3.453h12.118v8.725H77.393v1.265h12.785v20.951h1.264
			v-20.951h9.618v21.253h4.5v-21.253h9.618v19.253h1.264v-19.253h14.451v-1.265h-14.451v-8.725H131.56z M115.178,117.749v6.891
			h-9.618v-6.891H115.178z M91.441,117.749h9.618v6.891h-9.618V117.749z M91.441,136.817v-8.725h9.618v8.725H91.441z
			 M115.178,136.817h-9.618v-8.725h9.618V136.817z"/>
	</g>
	<rect x="44.06" y="175.835" fill="#612825" width="117.083" height="7.417"/>
	<rect x="44.31" y="94.585" fill="#A6A092" width="116.5" height="3.667"/>
	<path fill="none" stroke="#C6BC9E" stroke-miterlimit="10" d="M46.81,83.585c0.75-0.5,56-39.5,56-39.5l53.75,39.75"/>
	<g>
		<rect x="68.06" y="198.835" fill="#F7F1DC" width="71.25" height="59.917"/>
		<rect x="71.477" y="214.252" fill="none" stroke="#C9C3AD" stroke-miterlimit="10" width="62" height="44.333"/>
		<g>
			<rect x="71.977" y="202.585" fill="#837772" width="28.333" height="8.5"/>
			<path fill="#FFFFFF" d="M101.143,202.252h-1.166h-0.334h-26.5h-1.416h-0.084v9.208h0.084v0.042h28.25v-0.042h1.166V202.252z
				 M87.31,203.669h5.667v6.416H87.31V203.669z M85.81,210.085h-6.083v-6.416h6.083V210.085z M94.477,203.669h5.166v6.416h-5.166
				V203.669z M78.227,203.669v6.416h-5.084v-6.416H78.227z"/>
		</g>
		<g>
			<rect x="105.727" y="202.585" fill="#837772" width="28.333" height="8.5"/>
			<path fill="#FFFFFF" d="M134.893,202.252h-1.166h-0.334h-26.5h-1.416h-0.084v9.208h0.084v0.042h28.25v-0.042h1.166V202.252z
				 M121.06,203.669h5.667v6.416h-5.667V203.669z M119.56,210.085h-6.083v-6.416h6.083V210.085z M128.227,203.669h5.166v6.416
				h-5.166V203.669z M111.977,203.669v6.416h-5.084v-6.416H111.977z"/>
		</g>
		<rect x="68.06" y="215.835" fill="#837772" width="8.5" height="2.25"/>
		<rect x="67.81" y="252.96" fill="#837772" width="8.5" height="2.25"/>
		<rect x="130.56" y="215.835" fill="#837772" width="8.5" height="2.25"/>
		<rect x="130.31" y="252.96" fill="#837772" width="8.5" height="2.25"/>
		<g opacity="0.35">
			<line fill="none" stroke="#C9C3AD" stroke-miterlimit="10" x1="71.272" y1="220.703" x2="133.644" y2="220.895"/>
			<line fill="none" stroke="#C9C3AD" stroke-miterlimit="10" x1="71.314" y1="227.739" x2="133.686" y2="227.931"/>
			<line fill="none" stroke="#C9C3AD" stroke-miterlimit="10" x1="71.356" y1="234.776" x2="133.727" y2="234.967"/>
			<line fill="none" stroke="#C9C3AD" stroke-miterlimit="10" x1="71.398" y1="241.812" x2="133.769" y2="242.003"/>
			<line fill="none" stroke="#C9C3AD" stroke-miterlimit="10" x1="71.439" y1="248.849" x2="133.811" y2="249.04"/>
			<line fill="none" stroke="#C9C3AD" stroke-miterlimit="10" x1="71.481" y1="255.885" x2="133.853" y2="256.076"/>
		</g>
	</g>
	<g>
		<path fill="#612825" d="M243.479,237.454c-0.59,0.171-1.19,0.306-1.797,0.404c-0.892,2.765-2.107,6.406-4.927,7.251
			c0.293-1.909,1.136-2.838,1.513-4.928c-0.834,0.003-1.669,0.006-2.503,0.009c-0.095,1.364-0.188,2.728-0.283,4.092
			c-0.013,0.174-0.035,0.37-0.173,0.478c-0.311,0.245-0.689-0.208-0.824-0.579c-0.504-1.38-1.007-2.76-1.51-4.139l-2.747,0.188
			c1.442,1.786,2.188,4.053,2.487,6.329c0.301,2.276,0.183,4.585,0.063,6.878c0.87-0.033,1.739-0.064,2.608-0.097
			c0.205-0.008,0.437-0.028,0.562-0.189c0.096-0.123,0.101-0.292,0.1-0.448c-0.004-1.541,0.209-3.492,0.419-5.265
			c1.955-0.901,3.826-2.065,5.195-3.724C243.094,241.982,243.921,239.656,243.479,237.454z"/>
		<path fill="#537133" d="M250.387,214.486c-0.445-14.778-10.736-24.769-16.646-24.769c-0.06,0-0.125,0.007-0.188,0.011
			c-0.062-0.004-0.128-0.011-0.188-0.011c-5.91,0-16.201,9.99-16.646,24.769c-0.124,4.11-1.48,13.569-0.743,17.001
			c1.681,7.826,12.669,10.179,17.32,10.387v0.017c0.081-0.001,0.171-0.005,0.257-0.007c0.087,0.002,0.177,0.006,0.258,0.007v-0.017
			c4.651-0.208,15.64-2.561,17.32-10.387C251.867,228.056,250.511,218.597,250.387,214.486z"/>
		<path fill="#659740" d="M250.676,214.248c-0.45-14.629-10.85-24.519-16.822-24.519c-0.061,0-0.127,0.007-0.19,0.01
			c-0.062-0.003-0.129-0.01-0.189-0.01c-5.973,0-16.372,9.89-16.822,24.519c-0.096,3.108-0.519,6.214-0.754,9.32
			c-0.227,3.005-1.144,6.082,1.588,8.818c0.816,0.818,1.985,1.755,3.865,1.791c2.286,0.043,3.568-1.252,3.997-2.337
			c0.109-0.277,0.63-0.644,1.076-0.461c0.107,0.044,0.16,0.111,0.21,0.175c0.556,0.719,1.11,1.438,1.666,2.155
			c0.426,0.552,0.942,1.153,2.036,1.413c1.813,0.431,3.866-0.345,5.003-1.152c1.273-0.905,2.173-1.934,2.629-3.006
			c0.493,0.769,1.101,1.521,1.815,2.248c0.913,0.93,2.458,1.944,4.581,1.866c1.312-0.048,2.415-0.533,3.004-1.102
			c0.59-0.568,3.078-1.371,3.267-1.908c0.818-2.327,0.927-6.77,0.782-8.654C251.184,220.36,250.771,217.306,250.676,214.248z"/>
		<path fill="#82A547" d="M250.585,213.558c-0.445-14.313-10.736-23.99-16.646-23.99c-0.06,0-0.125,0.007-0.188,0.01
			c-0.062-0.003-0.128-0.01-0.188-0.01c-5.91,0-16.201,9.677-16.646,23.99c-0.095,3.043-2.498,7.111,1.792,9.64
			c1.111,0.655,2.702,1.172,4.465,1.221c2.065,0.056,4.018-0.541,5.28-1.324c1.264-0.782,1.959-1.734,2.635-2.668
			c0.701,1.272,1.415,2.562,2.764,3.71c1.349,1.148,3.425,2.16,6.061,2.546c1.033,0.151,2.181,0.199,3.173-0.005
			c1.523-0.312,2.297-1.12,2.752-1.882c0.781-1.308,1.026-2.688,0.716-4.041c0.158,0.671,0.554,1.329,1.164,1.938
			c0.199,0.199,0.437,0.401,0.821,0.523c4.203,1.328,2.561-3.256,2.516-3.737C250.873,217.506,250.646,215.532,250.585,213.558z"/>
		<g>
			<path fill="#8ABC3F" d="M223.671,214.323c0.733-0.757,1.024-1.835,1.632-2.697c0.607-0.861,1.861-1.489,2.695-0.845
				c0.349,0.271,0.531,0.698,0.682,1.113c0.75,2.073,1.199,4.507,3.032,5.73c1.82,1.217,4.63,0.492,5.636-1.452
				c0.615-1.188,0.581-2.598,0.937-3.887c0.355-1.29,1.413-2.617,2.74-2.447c2.379,0.305,1.993,4.322,4.034,5.582
				c1.57,0.97,3.553-0.228,4.958-1.424c0.231-0.198,0.478-0.396,0.729-0.592c-0.053-0.716-0.093-1.368-0.109-1.919
				c-0.445-14.778-10.736-24.769-16.646-24.769c-0.06,0-0.125,0.007-0.188,0.011c-0.062-0.004-0.128-0.011-0.188-0.011
				c-5.91,0-16.201,9.99-16.646,24.769c-0.002,0.045-0.005,0.099-0.007,0.145c0.12,0.396,0.264,0.787,0.466,1.159
				C218.613,214.985,221.936,216.116,223.671,214.323z"/>
		</g>
	</g>
	<polygon fill="#F9F4E4" points="160.81,94.335 44.06,94.335 36.06,83.335 165.014,83.411 	"/>
	<polygon fill="#E2DCCA" points="44.31,94.585 40.477,88.919 162.889,88.974 160.81,94.585 	"/>
	<g>
		<path fill="#612825" d="M34.352,243.782c-0.59,0.171-1.189,0.307-1.796,0.404c-0.893,2.765-2.107,6.406-4.928,7.251
			c0.293-1.909,1.137-2.838,1.514-4.927c-0.835,0.003-1.669,0.006-2.504,0.009c-0.094,1.363-0.188,2.728-0.283,4.091
			c-0.012,0.175-0.035,0.37-0.172,0.479c-0.312,0.244-0.689-0.209-0.825-0.58c-0.503-1.379-1.006-2.759-1.509-4.139l-2.748,0.188
			c1.442,1.786,2.188,4.054,2.488,6.33c0.3,2.275,0.182,4.584,0.063,6.877c0.869-0.032,1.739-0.064,2.608-0.097
			c0.204-0.008,0.436-0.028,0.562-0.189c0.097-0.123,0.101-0.292,0.101-0.448c-0.005-1.54,0.209-3.492,0.418-5.265
			c1.956-0.9,3.827-2.065,5.195-3.723C33.967,248.311,34.794,245.984,34.352,243.782z"/>
		<path fill="#537133" d="M41.26,220.815c-0.446-14.778-10.736-24.769-16.646-24.769c-0.061,0-0.126,0.007-0.188,0.01
			c-0.062-0.003-0.128-0.01-0.188-0.01c-5.91,0-16.2,9.99-16.646,24.769c-0.124,4.109-1.479,13.569-0.743,17
			c1.681,7.827,12.669,10.179,17.32,10.388v0.016c0.082-0.001,0.171-0.004,0.258-0.007c0.087,0.003,0.176,0.006,0.258,0.007v-0.016
			c4.651-0.209,15.639-2.561,17.32-10.388C42.739,234.385,41.384,224.925,41.26,220.815z"/>
		<path fill="#659740" d="M41.549,220.576c-0.451-14.629-10.851-24.519-16.822-24.519c-0.062,0-0.127,0.007-0.19,0.011
			c-0.063-0.004-0.13-0.011-0.19-0.011c-5.973,0-16.371,9.89-16.822,24.52c-0.096,3.107-0.519,6.214-0.753,9.319
			c-0.228,3.005-1.145,6.083,1.587,8.818c0.817,0.819,1.985,1.755,3.865,1.791c2.286,0.044,3.568-1.251,3.997-2.337
			c0.11-0.277,0.631-0.644,1.076-0.46c0.107,0.044,0.161,0.11,0.21,0.174c0.556,0.719,1.111,1.438,1.666,2.156
			c0.426,0.552,0.942,1.152,2.036,1.412c1.813,0.431,3.867-0.345,5.003-1.151c1.274-0.906,2.173-1.934,2.629-3.006
			c0.494,0.769,1.102,1.521,1.815,2.248c0.913,0.929,2.458,1.943,4.581,1.865c1.312-0.048,2.416-0.533,3.005-1.102
			c0.589-0.567,3.077-1.37,3.267-1.908c0.818-2.326,0.927-6.77,0.782-8.653C42.056,226.688,41.643,223.634,41.549,220.576z"/>
		<path fill="#82A547" d="M41.458,219.886c-0.446-14.313-10.736-23.989-16.646-23.989c-0.061,0-0.126,0.006-0.188,0.01
			c-0.062-0.004-0.128-0.01-0.188-0.01c-5.91,0-16.2,9.676-16.646,23.989c-0.095,3.044-2.497,7.111,1.792,9.641
			c1.111,0.655,2.702,1.172,4.465,1.22c2.065,0.057,4.019-0.541,5.281-1.323c1.263-0.783,1.958-1.735,2.634-2.669
			c0.701,1.273,1.415,2.562,2.764,3.711s3.425,2.159,6.062,2.545c1.032,0.151,2.181,0.199,3.173-0.005
			c1.522-0.312,2.297-1.12,2.751-1.881c0.782-1.309,1.026-2.689,0.716-4.042c0.159,0.671,0.554,1.329,1.164,1.939
			c0.199,0.198,0.437,0.4,0.822,0.522c4.202,1.329,2.56-3.255,2.516-3.737C41.746,223.834,41.52,221.86,41.458,219.886z"/>
		<g>
			<path fill="#8ABC3F" d="M14.544,220.652c0.733-0.758,1.024-1.836,1.632-2.697s1.86-1.489,2.694-0.845
				c0.35,0.27,0.531,0.698,0.682,1.113c0.75,2.073,1.199,4.506,3.032,5.73c1.82,1.216,4.63,0.492,5.637-1.452
				c0.614-1.188,0.581-2.598,0.936-3.888c0.355-1.289,1.414-2.616,2.74-2.446c2.379,0.304,1.994,4.321,4.034,5.581
				c1.57,0.97,3.554-0.227,4.958-1.424c0.231-0.197,0.479-0.396,0.73-0.591c-0.053-0.716-0.093-1.368-0.109-1.92
				c-0.446-14.777-10.736-24.768-16.646-24.768c-0.061,0-0.126,0.007-0.188,0.01c-0.062-0.003-0.128-0.01-0.188-0.01
				c-5.91,0-16.2,9.99-16.646,24.768c-0.001,0.045-0.005,0.099-0.006,0.145c0.12,0.397,0.264,0.787,0.465,1.16
				C9.486,221.313,12.808,222.444,14.544,220.652z"/>
		</g>
	</g>
</g>
</svg>
