<?xml version="1.0" encoding="utf-8"?>
<!-- Generator: Adobe Illustrator 16.0.0, SVG Export Plug-In . SVG Version: 6.00 Build 0)  -->
<!DOCTYPE svg PUBLIC "-//W3C//DTD SVG 1.1//EN" "http://www.w3.org/Graphics/SVG/1.1/DTD/svg11.dtd">
<svg version="1.1" id="Layer_1" xmlns="http://www.w3.org/2000/svg" xmlns:xlink="http://www.w3.org/1999/xlink" x="0px" y="0px"
	 width="500px" height="500px" viewBox="0 0 500 500" enable-background="new 0 0 500 500" xml:space="preserve">
<g>
	<circle fill="#2D7230" cx="250" cy="249" r="219.5"/>
	<path fill="#2D7230" d="M250,474.5c-60.233,0-116.861-23.456-159.453-66.048C47.956,365.861,24.5,309.233,24.5,249
		S47.956,132.139,90.547,89.547S189.767,23.5,250,23.5s116.861,23.456,159.452,66.047C452.044,132.139,475.5,188.767,475.5,249
		s-23.456,116.861-66.048,159.452C366.861,451.044,310.233,474.5,250,474.5z"/>
</g>
<image overflow="visible" width="96" height="96" xlink:href="../../../Documents/Business/4. Agent Shaming/AGENT SHAMING PSDs &amp; JPEGS/DESIGN FILES/ICONS/Good Quality-96.png"  transform="matrix(5.7569 0 0 5.7569 834.3057 -28.5)">
</image>
<path fill="#FFCC80" d="M323.854,356.883H193.045l-0.571-0.135c-0.442-0.103-10.956-2.615-21.543-9.599
	c-14.516-9.574-22.188-22.902-22.188-38.544v-64.199c-0.138-2.342-0.258-15.495,12.45-32.439
	c12.535-16.714,67.997-93.178,68.556-93.948c2.134-2.92,7.79-7.837,15.525-7.837c4.943,0,9.924,1.938,14.804,5.762
	c5.821,4.562,8.605,11.835,8.053,21.034c-0.435,7.202-2.762,13.497-3.466,15.255c-1.346,3.365-15.197,36.409-20.619,49.337h80.592
	l0.148,0.009c16.929,0.996,21.456,11.869,22.271,20.814c0.454,4.977,0.062,9.029-0.479,11.923
	c5.455,3.064,14.303,10.204,14.329,24.255c0.018,9.008-5.059,15.71-9.52,19.857c4.478,3.71,9.52,9.89,9.52,18.901
	c0,4.102-1.522,14.193-15.056,22.571c1.609,5.801,3.276,15.556-0.636,23.247C339.511,354.359,327.583,356.883,323.854,356.883z"/>
</svg>
