<?xml version="1.0" encoding="utf-8"?>
<!-- Generator: Adobe Illustrator 16.0.0, SVG Export Plug-In . SVG Version: 6.00 Build 0)  -->
<!DOCTYPE svg PUBLIC "-//W3C//DTD SVG 1.1//EN" "http://www.w3.org/Graphics/SVG/1.1/DTD/svg11.dtd">
<svg version="1.1" id="Layer_1" xmlns="http://www.w3.org/2000/svg" xmlns:xlink="http://www.w3.org/1999/xlink" x="0px" y="0px"
	 width="105px" height="105px" viewBox="0 0 105 105" enable-background="new 0 0 105 105" xml:space="preserve">
<path fill="#9E0B0F" d="M30.47,88.805c-0.973,0-1.901-0.303-2.685-0.874c-1.397-1.005-2.11-2.761-1.808-4.47l3.705-21.598
	L13.978,46.551c-1.249-1.221-1.694-3.01-1.162-4.669c0.525-1.641,1.97-2.862,3.68-3.113l21.709-3.153l9.902-19.976
	c0.024-0.054,0.045-0.113,0.069-0.173c0.208-0.526,0.759-1.922,2.356-1.922h1.5v64.429l-19.433,10.3
	C31.945,88.621,31.208,88.805,30.47,88.805z"/>
<path fill="#FFFFFF" d="M71.433,88.274L52,77.975V13.545h1.5c1.597,0,2.148,1.396,2.355,1.922c0.024,0.06,0.045,0.119,0.069,0.173
	l9.901,19.976l21.71,3.153c1.71,0.25,3.154,1.472,3.68,3.113c0.532,1.659,0.087,3.448-1.162,4.669L74.349,61.863l3.705,21.598
	c0.302,1.709-0.411,3.465-1.808,4.47c-0.783,0.571-1.712,0.874-2.686,0.874C72.822,88.805,72.086,88.621,71.433,88.274z"/>
<path display="none" fill="#9E0A0B" d="M83.25,3h-62.5C10.391,3,2,11.391,2,21.75v62.5C2,94.609,10.391,103,20.75,103h62.5
	C93.609,103,102,94.609,102,84.25v-62.5C102,11.391,93.609,3,83.25,3L83.25,3z M88.98,45.477L72.711,61.34l3.84,22.383
	c0.203,1.148-0.27,2.316-1.215,2.996c-0.535,0.391-1.164,0.586-1.801,0.586c-0.488,0-0.977-0.117-1.426-0.355L52,76.383
	l-20.109,10.57c-1.036,0.543-2.286,0.453-3.227-0.234c-0.941-0.684-1.418-1.848-1.215-2.996l3.84-22.383L15.02,45.477
	c-0.836-0.817-1.133-2.028-0.774-3.137c0.363-1.11,1.32-1.914,2.469-2.086l22.488-3.266l10.055-20.375
	c1.035-2.09,4.457-2.09,5.492,0l10.055,20.375l22.488,3.266c1.148,0.168,2.113,0.976,2.469,2.086
	C90.117,43.449,89.816,44.66,88.98,45.477L88.98,45.477z"/>
</svg>
